<?xml version="1.0" encoding="utf-8"?>
<!-- Generator: Adobe Illustrator 16.0.0, SVG Export Plug-In . SVG Version: 6.00 Build 0)  -->
<!DOCTYPE svg PUBLIC "-//W3C//DTD SVG 1.1//EN" "http://www.w3.org/Graphics/SVG/1.1/DTD/svg11.dtd">
<svg version="1.1" id="Layer_1" xmlns="http://www.w3.org/2000/svg" xmlns:xlink="http://www.w3.org/1999/xlink" x="0px" y="0px"
	 width="480px" height="480px" viewBox="0 0 480 480" enable-background="new 0 0 480 480" xml:space="preserve">
<path fill="#D63D01" d="M439.992,200h-13.102l-45.77-38.145c-1.441-1.199-3.254-1.855-5.129-1.855h-128c-4.418,0-8,3.582-8,8v8h-88
	c-4.418,0-8,3.582-8,8v72c0,4.418,3.582,8,8,8h12.688l16,16l-10.344,10.344c-3.121,3.125-3.121,8.188,0,11.313l96,96
	c3.125,3.121,8.188,3.121,11.313,0l18.344-18.344l2.344,2.344c3.125,3.121,8.188,3.121,11.313,0L395.305,296h44.688
	c4.418,0,8-3.582,8-8v-80C447.992,203.582,444.41,200,439.992,200z M197.648,285.656l2.344-2.344L212.68,296l-12.688,12.688
	L187.305,296L197.648,285.656z M223.992,307.312L236.68,320l-12.688,12.688L211.305,320L223.992,307.312z M247.992,331.312
	L260.68,344l-12.688,12.688L235.305,344L247.992,331.312z M271.992,380.687L259.305,368l12.688-12.688L284.68,368L271.992,380.687z
	 M359.992,308.687l-34.344-34.344c-3.141-3.031-8.129-2.988-11.215,0.098s-3.129,8.074-0.098,11.215L348.68,320l-12.688,12.688
	l-34.344-34.344c-3.141-3.031-8.129-2.988-11.215,0.098s-3.129,8.074-0.098,11.215L324.68,344l-20.688,20.688l-98.344-98.344
	c-3.125-3.121-8.188-3.121-11.313,0l-2.344,2.344l-18.344-18.344c-1.5-1.5-3.535-2.344-5.656-2.344h-8v-56h80v8c0,4.418,3.582,8,8,8
	h52.688l80,80L359.992,308.687z M431.992,280h-36.688l-85.656-85.656c-1.5-1.5-3.535-2.344-5.656-2.344h-48v-16h117.105
	l45.766,38.145c1.441,1.199,3.254,1.855,5.129,1.855h8V280z"/>
<path fill="#D63D01" d="M215.992,128c-4.418,0-8,3.582-8,8s3.582,8,8,8h144c4.418,0,8-3.582,8-8s-3.582-8-8-8h-16V80h16
	c3.527,0,6.637-2.305,7.66-5.68c1.02-3.375-0.285-7.02-3.219-8.977l-72-48c-2.688-1.793-6.191-1.793-8.883,0l-72,48
	c-2.93,1.957-4.238,5.602-3.215,8.977c1.02,3.375,4.133,5.68,7.656,5.68h16v48H215.992z M279.992,128v-16h16v16H279.992z
	 M287.992,33.601L333.594,64h-91.199L287.992,33.601z M247.992,80h80v48h-16v-24c0-4.418-3.582-8-8-8h-32c-4.418,0-8,3.582-8,8v24
	h-16V80z"/>
<path fill="#D63D01" d="M439.992,384h-80c-4.418,0-8,3.582-8,8s3.582,8,8,8h80c4.418,0,8-3.582,8-8S444.41,384,439.992,384z"/>
<path fill="#D63D01" d="M439.992,416h-80c-4.418,0-8,3.582-8,8s3.582,8,8,8h80c4.418,0,8-3.582,8-8S444.41,416,439.992,416z"/>
<path fill="#D63D01" stroke="#62C9D9" stroke-miterlimit="10" d="M479.48,69.433c-0.086-0.258-0.152-0.496-0.266-0.746
	c-0.387-0.871-0.93-1.664-1.598-2.344l-64-64c-0.676-0.672-1.465-1.215-2.336-1.602c-0.258-0.117-0.504-0.184-0.801-0.277
	c-0.656-0.223-1.34-0.355-2.031-0.402C408.336,0.09,408.176,0,407.992,0h-288c-4.418,0-8,3.582-8,8v17.969L5.801,56.312
	c-2.098,0.598-3.859,2.027-4.875,3.957c-1.02,1.93-1.207,4.188-0.516,6.258l111.582,334.762V472c0,4.418,3.582,8,8,8h352
	c4.418,0,8-3.582,8-8V72C479.887,71.133,479.715,70.273,479.48,69.433z M452.68,64h-36.688V27.312L452.68,64z M18.227,69.398
	l93.766-26.789v308.094L18.227,69.398z M127.992,464V16h272v56c0,4.418,3.582,8,8,8h56v384H127.992z"/>
</svg>
