<?xml version="1.0" encoding="utf-8"?>
<!-- Generator: Adobe Illustrator 16.0.0, SVG Export Plug-In . SVG Version: 6.00 Build 0)  -->
<!DOCTYPE svg PUBLIC "-//W3C//DTD SVG 1.1//EN" "http://www.w3.org/Graphics/SVG/1.1/DTD/svg11.dtd">
<svg version="1.1" id="Capa_1" xmlns="http://www.w3.org/2000/svg" xmlns:xlink="http://www.w3.org/1999/xlink" x="0px" y="0px"
	 width="2059.09px" height="538.871px" viewBox="0 0 2059.09 538.871" enable-background="new 0 0 2059.09 538.871"
	 xml:space="preserve">
<g>
	<g>
		<rect x="805.019" y="53.893" fill="#D63D01" width="116.754" height="17.962"/>
	</g>
</g>
<g>
	<g>
		<rect x="805.019" y="89.817" fill="#D63D01" width="116.754" height="17.962"/>
	</g>
</g>
<g>
	<g>
		<rect x="805.019" y="125.742" fill="#D63D01" width="80.829" height="17.962"/>
	</g>
</g>
<g>
	<g>
		<rect x="805.019" y="161.666" fill="#D63D01" width="80.829" height="17.962"/>
	</g>
</g>
<g>
	<g>
		<rect x="760.113" y="520.908" fill="#D63D01" width="538.863" height="17.963"/>
	</g>
</g>
<g>
	<g>
		<path fill="#D63D01" d="M1280.071,76.822l-35.924-71.849c-2.215-4.439-7.607-6.242-12.046-4.027
			c-0.002,0.002-0.005,0.003-0.007,0.004l-71.849,35.924c-4.438,2.218-6.24,7.614-4.023,12.053s7.613,6.241,12.053,4.023l52.036-26
			l-14.199,40.54c-62.41,177.744-223.159,302.442-410.838,318.702l1.526,17.962c194.751-16.87,361.548-146.284,426.277-330.736
			l14.495-41.421l26.422,52.854c2.218,4.439,7.614,6.241,12.053,4.024C1280.488,86.657,1282.289,81.261,1280.071,76.822z"/>
	</g>
</g>
<g>
	<g>
		<path fill="#D63D01" d="M867.886,431.097h-62.867c-4.96,0-8.981,4.021-8.981,8.981v53.886c0,4.96,4.021,8.981,8.981,8.981h62.867
			c4.96,0,8.981-4.021,8.981-8.981v-53.886C876.867,435.119,872.846,431.097,867.886,431.097z M858.904,484.984H814V449.06h44.904
			V484.984z"/>
	</g>
</g>
<g>
	<g>
		<path fill="#D63D01" d="M966.678,404.154h-62.867c-4.96,0-8.981,4.021-8.981,8.981v80.829c0,4.96,4.021,8.981,8.981,8.981h62.867
			c4.96,0,8.98-4.021,8.98-8.981v-80.829C975.658,408.176,971.638,404.154,966.678,404.154z M957.696,484.984h-44.905v-62.867
			h44.905V484.984z"/>
	</g>
</g>
<g>
	<g>
		<path fill="#D63D01" d="M1065.469,359.249h-62.867c-4.96,0-8.98,4.021-8.98,8.981v125.734c0,4.96,4.021,8.981,8.98,8.981h62.867
			c4.96,0,8.981-4.021,8.981-8.981V368.23C1074.45,363.27,1070.429,359.249,1065.469,359.249z M1056.488,484.984h-44.905V377.212
			h44.905V484.984z"/>
	</g>
</g>
<g>
	<g>
		<path fill="#D63D01" d="M1164.261,296.382h-62.867c-4.96,0-8.981,4.021-8.981,8.981v188.602c0,4.96,4.021,8.981,8.981,8.981
			h62.867c4.96,0,8.981-4.021,8.981-8.981V305.363C1173.242,300.403,1169.221,296.382,1164.261,296.382z M1155.279,484.984h-44.905
			V314.344h44.905V484.984z"/>
	</g>
</g>
<g>
	<g>
		<path fill="#D63D01" d="M1263.053,170.647h-62.868c-4.959,0-8.98,4.021-8.98,8.98v314.337c0,4.96,4.021,8.981,8.98,8.981h62.868
			c4.959,0,8.98-4.021,8.98-8.981V179.628C1272.033,174.668,1268.012,170.647,1263.053,170.647z M1254.071,484.984h-44.905V188.609
			h44.905V484.984z"/>
	</g>
</g>
</svg>
