<svg height="480pt" viewBox="0 0 480 480" width="480pt" xmlns="http://www.w3.org/2000/svg"><path d="m376 128c-4.417969 0-8-3.582031-8-8h-16c.042969 10.132812 6.445312 19.148438 16 22.527344v9.472656h16v-9.472656c11.011719-3.878906 17.621094-15.132813 15.644531-26.640625-1.980469-11.507813-11.96875-19.910157-23.644531-19.886719-4.417969 0-8-3.582031-8-8s3.582031-8 8-8 8 3.582031 8 8h16c-.042969-10.132812-6.445312-19.148438-16-22.527344v-9.472656h-16v9.472656c-11.011719 3.878906-17.621094 15.132813-15.644531 26.640625 1.980469 11.507813 11.96875 19.910157 23.644531 19.886719 4.417969 0 8 3.582031 8 8s-3.582031 8-8 8zm0 0"/><path d="m376 184c44.183594 0 80-35.816406 80-80s-35.816406-80-80-80-80 35.816406-80 80c.046875 44.164062 35.835938 79.953125 80 80zm0-144c35.347656 0 64 28.652344 64 64s-28.652344 64-64 64-64-28.652344-64-64c.039062-35.328125 28.671875-63.960938 64-64zm0 0"/><path d="m376 208c57.4375 0 104-46.5625 104-104s-46.5625-104-104-104-104 46.5625-104 104c.066406 57.410156 46.589844 103.933594 104 104zm0-192c48.601562 0 88 39.398438 88 88s-39.398438 88-88 88-88-39.398438-88-88c.058594-48.578125 39.421875-87.941406 88-88zm0 0"/><path d="m416 96h16v16h-16zm0 0"/><path d="m320 96h16v16h-16zm0 0"/><path d="m272 328v-24c0-.746094-.105469-1.484375-.3125-2.199219l-14.34375-50.191406c-1.976562-6.855469-8.242188-11.585937-15.375-11.609375h-17.96875v-16c0-8.835938-7.164062-16-16-16h-144c-8.835938 0-16 7.164062-16 16v16h-17.96875c-7.132812.023438-13.394531 4.746094-15.375 11.601562l-14.34375 50.199219c-.207031.714844-.3125 1.453125-.3125 2.199219v24c.0351562 12.523438 5.964844 24.300781 16 31.792969v104.207031c0 8.835938 7.164062 16 16 16h208c8.835938 0 16-7.164062 16-16v-104.207031c10.035156-7.492188 15.964844-19.269531 16-31.792969zm-208-104h144v64h-144zm0 240v-64h32v64zm176 0h-128v-72c0-4.417969-3.582031-8-8-8h-48c-4.417969 0-8 3.582031-8 8v72h-16v-96.800781c15.152344 3.089843 30.726562-2.828125 40-15.199219 7.554688 10.070312 19.410156 16 32 16s24.445312-5.929688 32-16c7.539062 10.121094 19.433594 16.066406 32.054688 16.023438 12.625-.042969 24.476562-6.074219 31.945312-16.246094 9.167969 12.523437 24.792969 18.554687 40 15.4375zm16-136c0 13.253906-10.746094 24-24 24s-24-10.746094-24-24c0-4.417969-3.582031-8-8-8s-8 3.582031-8 8c0 13.253906-10.746094 24-24 24s-24-10.746094-24-24c0-4.417969-3.582031-8-8-8s-8 3.582031-8 8c0 13.253906-10.746094 24-24 24s-24-10.746094-24-24c0-4.417969-3.582031-8-8-8s-8 3.582031-8 8c0 13.253906-10.746094 24-24 24s-24-10.746094-24-24v-22.878906l14.03125-49.121094h17.96875v32c0 8.835938 7.164062 16 16 16h144c8.835938 0 16-7.164062 16-16v-32h17.96875l14.03125 49.121094zm0 0"/><path d="m216 384h-80c-4.417969 0-8 3.582031-8 8v48c0 4.417969 3.582031 8 8 8h80c4.417969 0 8-3.582031 8-8v-48c0-4.417969-3.582031-8-8-8zm-8 48h-64v-32h64zm0 0"/><path d="m424 240c0-8.386719-.566406-16.769531-1.695312-25.078125l-15.847657 2.15625c1.027344 7.597656 1.542969 15.257813 1.542969 22.921875.085938 81.132812-57.878906 150.710938-137.695312 165.273438l2.863281 15.742187c87.425781-15.941406 150.925781-92.148437 150.832031-181.015625zm0 0"/><path d="m62.953125 189.753906 15.382813 4.359375c22.941406-80.417969 101.453124-131.785156 184.328124-120.601562l2.136719-15.855469c-8.222656-1.101562-16.507812-1.65625-24.800781-1.65625-82.210938.203125-154.386719 54.726562-177.046875 133.753906zm0 0"/><path d="m444.441406 201.472656c20.078125 107.203125-45.941406 211.746094-151.371094 239.695313l4.074219 15.480469c113.539063-30.089844 184.640625-142.667969 163.023438-258.121094zm0 0"/><path d="m240 32c12.925781 0 25.820312 1.191406 38.527344 3.558594l2.945312-15.726563c-59.953125-11.230469-121.894531 2.449219-171.542968 37.878907-49.652344 35.429687-82.726563 89.558593-91.601563 149.90625l15.832031 2.292968c15.316406-101.96875 102.726563-177.519531 205.839844-177.910156zm0 0"/></svg>