<?xml version="1.0" encoding="iso-8859-1"?>
<!-- Generator: Adobe Illustrator 19.0.0, SVG Export Plug-In . SVG Version: 6.00 Build 0)  -->
<svg version="1.1" id="Layer_1" xmlns="http://www.w3.org/2000/svg" xmlns:xlink="http://www.w3.org/1999/xlink" x="0px" y="0px"
	 viewBox="0 0 512 512" style="enable-background:new 0 0 512 512;" xml:space="preserve">
<g>
	<g>
		<g>
			<path d="M239.778,179.14c-0.529,7.945-0.845,16.435-0.845,25.66c0,42.743,12.757,68.267,34.133,68.267
				c26.948,0,34.133-32.179,34.133-51.2c0-4.71-3.823-8.533-8.533-8.533s-8.533,3.823-8.533,8.533
				c0,0.341-0.734,34.133-17.067,34.133c-9.89,0-17.067-21.53-17.067-51.2c0-99.49,34.918-110.822,36.019-111.138
				c4.497-1.024,7.39-5.453,6.477-10.001c-0.913-4.617-5.385-7.62-10.035-6.69c-1.707,0.341-7.893,1.963-15.334,8.337
				c0.009-1.468,0.128-2.935,0.521-4.395c1.178-4.403,4.002-8.081,7.953-10.359c3.942-2.278,8.55-2.884,12.945-1.707
				c4.403,1.186,8.09,4.011,10.359,7.953c4.71,8.149,1.911,18.611-6.238,23.313c-4.087,2.364-5.478,7.586-3.123,11.665
				c1.579,2.731,4.446,4.258,7.398,4.258c1.451,0,2.918-0.367,4.258-1.143c16.299-9.421,21.897-30.336,12.493-46.626
				c-4.557-7.893-11.921-13.542-20.727-15.906c-8.823-2.364-18.014-1.143-25.899,3.413c-7.893,4.557-13.542,11.921-15.906,20.727
				c-2.21,8.243-1.161,16.802,2.85,24.593c-7.322,11.913-14.165,29.653-17.971,56.038c-12.774-15.3-20.173-34.79-20.173-54.733
				c0-47.053,38.281-85.333,85.333-85.333s85.333,38.281,85.333,85.333s-38.281,85.333-85.333,85.333
				c-9.267,0-18.381-1.476-27.076-4.378c-4.463-1.485-9.31,0.922-10.795,5.385c-1.502,4.471,0.913,9.301,5.385,10.795
				c10.445,3.49,21.376,5.265,32.486,5.265c56.465,0,102.4-45.935,102.4-102.4C409.6,45.935,363.665,0,307.2,0
				S204.8,45.935,204.8,102.4C204.8,131.499,217.865,159.778,239.778,179.14z"/>
			<path d="M509.5,249.967l-88.627-88.627c-3.328-3.328-8.73-3.328-12.066,0c-3.328,3.337-3.328,8.738,0,12.066l86.127,86.127
				v30.601h-30.601l-3.533-3.533v-22.067c0-4.71-3.823-8.533-8.533-8.533h-8.533v-8.533c0-4.71-3.823-8.533-8.533-8.533h-22.059
				l-3.541-3.541v-22.059c0-4.71-3.823-8.533-8.533-8.533H379l-0.828-0.828c-3.328-3.328-8.73-3.328-12.066,0
				c-3.328,3.337-3.328,8.738,0,12.066l3.328,3.328c1.596,1.604,3.772,2.5,6.033,2.5h17.067v17.058c0,2.261,0.896,4.429,2.492,6.025
				l8.533,8.55c1.604,1.604,3.772,2.5,6.042,2.5h17.067v8.533c0,4.71,3.823,8.533,8.533,8.533h8.533v17.067
				c0,2.261,0.896,4.437,2.5,6.033l8.533,8.533c1.596,1.604,3.772,2.5,6.033,2.5h42.667c4.71,0,8.533-3.823,8.533-8.533V256
				C512,253.739,511.104,251.563,509.5,249.967z"/>
			<path d="M51.2,145.067c0,4.71,3.823,8.533,8.533,8.533h8.533v51.2h-8.533c-4.71,0-8.533,3.823-8.533,8.533
				c0,4.71,3.823,8.533,8.533,8.533h8.533v51.2h-8.533c-4.71,0-8.533,3.823-8.533,8.533s3.823,8.533,8.533,8.533h8.533v51.2h-8.533
				c-4.71,0-8.533,3.823-8.533,8.533s3.823,8.533,8.533,8.533h8.533v51.2h-8.533c-4.71,0-8.533,3.823-8.533,8.533
				s3.823,8.533,8.533,8.533h8.533v42.667c0,4.71,3.823,8.533,8.533,8.533s8.533-3.823,8.533-8.533v-42.667h34.133v42.667
				c0,4.71,3.823,8.533,8.533,8.533s8.533-3.823,8.533-8.533v-42.667h34.133v42.667c0,4.71,3.823,8.533,8.533,8.533
				s8.533-3.823,8.533-8.533v-42.667h34.133v42.667c0,4.71,3.823,8.533,8.533,8.533s8.533-3.823,8.533-8.533v-42.667h8.533
				c4.71,0,8.533-3.823,8.533-8.533s-3.823-8.533-8.533-8.533h-8.533v-51.2h8.533c4.71,0,8.533-3.823,8.533-8.533
				s-3.823-8.533-8.533-8.533h-8.533v-51.2c4.71,0,8.533-3.823,8.533-8.533s-3.823-8.533-8.533-8.533
				c0-4.71-3.823-8.533-8.533-8.533s-8.533,3.823-8.533,8.533h-34.133v-51.2h25.6c4.71,0,8.533-3.823,8.533-8.533
				c0-4.71-3.823-8.533-8.533-8.533h-25.6v-51.2H192c4.71,0,8.533-3.823,8.533-8.533c0-4.71-3.823-8.533-8.533-8.533H59.733
				C55.023,136.533,51.2,140.356,51.2,145.067z M187.733,290.133h34.133v51.2h-34.133V290.133z M187.733,358.4h34.133v51.2h-34.133
				V358.4z M136.533,153.6h34.133v51.2h-34.133V153.6z M136.533,221.867h34.133v51.2h-34.133V221.867z M136.533,290.133h34.133v51.2
				h-34.133V290.133z M136.533,358.4h34.133v51.2h-34.133V358.4z M85.333,153.6h34.133v51.2H85.333V153.6z M85.333,221.867h34.133
				v51.2H85.333V221.867z M85.333,290.133h34.133v51.2H85.333V290.133z M85.333,358.4h34.133v51.2H85.333V358.4z"/>
			<path d="M179.2,119.467c4.71,0,8.533-3.823,8.533-8.533s-3.823-8.533-8.533-8.533H128c-4.71,0-8.533,3.823-8.533,8.533
				s3.823,8.533,8.533,8.533H179.2z"/>
			<path d="M503.467,494.933h-128v-34.995c19.447-3.968,34.133-21.197,34.133-41.805c0-1.109-0.486-110.933-42.667-110.933
				s-42.667,109.824-42.667,110.933c0,20.608,14.686,37.837,34.133,41.805v34.995h-68.267V298.667c0-4.71-3.823-8.533-8.533-8.533
				s-8.533,3.823-8.533,8.533v196.267H34.133V119.467h59.733c4.71,0,8.533-3.823,8.533-8.533v-25.6h76.8
				c4.71,0,8.533-3.823,8.533-8.533s-3.823-8.533-8.533-8.533H93.867c-4.71,0-8.533,3.823-8.533,8.533v25.6H25.6
				c-4.71,0-8.533,3.823-8.533,8.533v384H8.533c-4.71,0-8.533,3.823-8.533,8.533S3.823,512,8.533,512h494.933
				c4.71,0,8.533-3.823,8.533-8.533S508.177,494.933,503.467,494.933z M341.333,418.133c0-42.513,11.418-93.867,25.6-93.867
				s25.6,51.354,25.6,93.867c0,14.114-11.486,25.6-25.6,25.6S341.333,432.247,341.333,418.133z"/>
		</g>
	</g>
</g>
<g>
</g>
<g>
</g>
<g>
</g>
<g>
</g>
<g>
</g>
<g>
</g>
<g>
</g>
<g>
</g>
<g>
</g>
<g>
</g>
<g>
</g>
<g>
</g>
<g>
</g>
<g>
</g>
<g>
</g>
</svg>
