<svg height="496pt" viewBox="0 0 496 496" width="496pt" xmlns="http://www.w3.org/2000/svg"><path d="m240 384h16c4.414062 0 8 3.585938 8 8h16c0-13.230469-10.769531-24-24-24v-16h-16v16c-13.230469 0-24 10.769531-24 24s10.769531 24 24 24h16c4.414062 0 8 3.585938 8 8s-3.585938 8-8 8h-16c-4.414062 0-8-3.585938-8-8h-16c0 13.230469 10.769531 24 24 24v16h16v-16c13.230469 0 24-10.769531 24-24s-10.769531-24-24-24h-16c-4.414062 0-8-3.585938-8-8s3.585938-8 8-8zm0 0"/><path d="m471.191406 480c-3.71875-18.230469-19.871094-32-39.191406-32h-24v-56h8c30.871094 0 56-25.128906 56-56v-8h-24c-15.664062 0-29.824219 6.480469-40 16.886719v-24.886719c0-25.3125-16.894531-46.734375-40-53.640625v-170.359375h-24v-32h-24v-32h-24v-32h-16v32h-64v-32h-16v32h-24v32h-24v32h-24v170.359375c-23.097656 6.90625-40 28.328125-40 53.640625v24.886719c-10.175781-10.40625-24.335938-16.886719-40-16.886719h-24v8c0 30.871094 25.128906 56 56 56h8v56h-24c-19.3125 0-35.472656 13.769531-39.191406 32h-24.808594v16h496v-16zm-23.191406-136h7.191406c-3.71875 18.230469-19.871094 32-39.191406 32h-7.191406c3.710937-18.230469 19.871094-32 39.191406-32zm-368 32c-19.320312 0-35.480469-13.769531-39.191406-32h7.191406c19.320312 0 35.480469 13.769531 39.191406 32zm374.527344 104h-109.054688c3.3125-9.289062 12.113282-16 22.527344-16h64c10.414062 0 19.214844 6.710938 22.527344 16zm-62.527344-32h-24v-26.359375c5.070312 1.519531 10.441406 2.359375 16 2.359375h8zm-.808594-40h-7.191406c-19.320312 0-35.480469-13.769531-39.191406-32h7.191406c19.320312 0 35.480469 13.769531 39.191406 32zm.808594-80v48.886719c-6.558594-6.710938-14.785156-11.765625-24-14.527344v-36.71875c5.070312 1.519531 10.441406 2.359375 16 2.359375zm-.808594-16h-7.191406c-19.320312 0-35.480469-13.769531-39.191406-32h7.191406c19.320312 0 35.480469 13.769531 39.191406 32zm-199.191406-264h112v16h-112zm-24 32h160v16h-160zm-24 200h7.191406c-3.71875 18.230469-19.871094 32-39.191406 32h-7.191406c3.710937-18.230469 19.871094-32 39.191406-32zm-32 48c5.558594 0 10.929688-.839844 16-2.359375v36.71875c-9.214844 2.753906-17.441406 7.816406-24 14.527344v-48.886719zm0 80h-7.191406c3.71875-18.230469 19.871094-32 39.191406-32h7.191406c-3.710937 18.230469-19.871094 32-39.191406 32zm-8 16h8c5.558594 0 10.929688-.839844 16-2.359375v26.359375h-24zm-40 40h64c10.414062 0 19.214844 6.710938 22.527344 16h-109.054688c3.3125-9.289062 12.113282-16 22.527344-16zm136 16v-144h96v144zm-16-160v160h-16.808594c-2.625-12.855469-11.449218-23.457031-23.191406-28.609375v-37.503906c14.488281-10.132813 24-26.910157 24-45.886719v-8h-24v-42.113281c14.488281-10.132813 24-26.910157 24-45.886719v-8h-24v-152h208v152h-24v8c0 18.976562 9.511719 35.753906 24 45.886719v42.113281h-24v8c0 18.976562 9.511719 35.753906 24 45.886719v37.503906c-11.742188 5.152344-20.566406 15.753906-23.191406 28.609375h-16.808594v-160zm0 0"/><path d="m208 128h-48v48h48zm-16 32h-16v-16h16zm0 0"/><path d="m272 128h-48v48h48zm-16 32h-16v-16h16zm0 0"/><path d="m336 128h-48v48h48zm-16 32h-16v-16h16zm0 0"/><path d="m208 192h-48v48h48zm-16 32h-16v-16h16zm0 0"/><path d="m272 192h-48v48h48zm-16 32h-16v-16h16zm0 0"/><path d="m336 192h-48v48h48zm-16 32h-16v-16h16zm0 0"/><path d="m312 256h-128v48h128zm-16 32h-96v-16h96zm0 0"/></svg>